<?xml version="1.0" encoding="UTF-8" standalone="no"?>
<!-- Created with Inkscape (http://www.inkscape.org/) -->

<svg
   xmlns:dc="http://purl.org/dc/elements/1.1/"
   xmlns:cc="http://creativecommons.org/ns#"
   xmlns:rdf="http://www.w3.org/1999/02/22-rdf-syntax-ns#"
   xmlns:svg="http://www.w3.org/2000/svg"
   xmlns="http://www.w3.org/2000/svg"
   xmlns:sodipodi="http://sodipodi.sourceforge.net/DTD/sodipodi-0.dtd"
   xmlns:inkscape="http://www.inkscape.org/namespaces/inkscape"
   width="23.408718"
   height="26.774195"
   viewBox="0 0 47.322613 54.126196"
   version="1.1"
   id="svg8"
   sodipodi:docname="user-circle-regular.svg"
   inkscape:version="0.92.4 (5da689c313, 2019-01-14)">
  <defs
     id="defs2" />
  <sodipodi:namedview
     id="base"
     pagecolor="#ffffff"
     bordercolor="#666666"
     borderopacity="1.0"
     inkscape:pageopacity="0.0"
     inkscape:pageshadow="2"
     inkscape:zoom="1.4"
     inkscape:cx="-48.169299"
     inkscape:cy="-111.94181"
     inkscape:document-units="mm"
     inkscape:current-layer="layer1"
     showgrid="false"
     inkscape:window-width="1280"
     inkscape:window-height="971"
     inkscape:window-x="-8"
     inkscape:window-y="-8"
     inkscape:window-maximized="1"
     fit-margin-top="0"
     fit-margin-left="0"
     fit-margin-right="0"
     fit-margin-bottom="0"
     units="px"
     scale-x="7.64062"
     viewbox-width="40" />
  <metadata
     id="metadata5">
    <rdf:RDF>
      <cc:Work
         rdf:about="">
        <dc:format>image/svg+xml</dc:format>
        <dc:type
           rdf:resource="http://purl.org/dc/dcmitype/StillImage" />
        <dc:title></dc:title>
      </cc:Work>
    </rdf:RDF>
  </metadata>
  <g
     inkscape:label="Capa 1"
     inkscape:groupmode="layer"
     id="layer1"
     transform="translate(-39.460716,-88.508336)">
    <path
       id="path3723"
       d="m 63.122023,98.984372 c -5.056651,0 -9.159213,4.692388 -9.159213,10.476038 0,5.78364 4.102562,10.47604 9.159213,10.47604 5.056652,0 9.159214,-4.6924 9.159214,-10.47604 0,-5.78365 -4.102562,-10.476038 -9.159214,-10.476038 z m 0,15.714058 c -2.528322,0 -4.579607,-2.3462 -4.579607,-5.23802 0,-2.89182 2.051285,-5.23802 4.579607,-5.23802 2.528322,0 4.579607,2.3462 4.579607,5.23802 0,2.89182 -2.051285,5.23802 -4.579607,5.23802 z m 0,-26.190094 c -13.070961,0 -23.661307,12.112914 -23.661307,27.063094 0,14.95018 10.590346,27.0631 23.661307,27.0631 13.070969,0 23.661308,-12.11292 23.661308,-27.0631 0,-14.95018 -10.590339,-27.063094 -23.661308,-27.063094 z m 0,48.888174 c -4.741799,0 -9.07335,-1.997 -12.412643,-5.28167 1.421587,-2.50988 3.854499,-4.21224 6.640432,-4.31045 1.984494,0.6984 3.873587,1.0476 5.772211,1.0476 1.898632,0 3.787717,-0.33829 5.772219,-1.0476 2.785926,0.10912 5.218837,1.80057 6.640432,4.31045 -3.3393,3.28467 -7.670844,5.28167 -12.412651,5.28167 z m 15.522961,-9.17745 c -2.327961,-3.42653 -5.924864,-5.6636 -10.027433,-5.6636 -0.973163,0 -2.48062,1.0476 -5.495528,1.0476 -3.005367,0 -4.522364,-1.0476 -5.495528,-1.0476 -4.093021,0 -7.689924,2.23707 -10.027433,5.6636 -2.232558,-3.56839 -3.558738,-7.93341 -3.558738,-12.64763 0,-12.03653 8.558141,-21.825076 19.081699,-21.825076 10.523559,0 19.081701,9.788546 19.081701,21.825076 0,4.71422 -1.326177,9.07924 -3.55874,12.64763 z"
       inkscape:connector-curvature="0"
       style="fill:#ffffff;stroke-width:0.10203671" />
  </g>
</svg>
